<svg height="32" viewBox="0 0 32 32" width="32" xmlns="http://www.w3.org/2000/svg">
<title>The Skinny Union Project — graphic mark</title>
<desc>DuBois spiral mark. Crimson, cobalt, gold on cream. Locked May 2026.</desc>
<rect fill="#EDE3CF" height="32" width="32"></rect>
<path d="M15.268,15.578 L15.261,15.547 L15.254,15.516 L15.249,15.484 L15.245,15.452 L15.242,15.419 L15.241,15.385 L15.240,15.351 L15.241,15.317 L15.243,15.282 L15.247,15.247 L15.251,15.211 L15.258,15.175 L15.265,15.140 L15.274,15.103 L15.284,15.067 L15.296,15.031 L15.309,14.995 L15.324,14.958 L15.340,14.922 L15.357,14.886 L15.376,14.850 L15.396,14.815 L15.418,14.780 L15.441,14.745 L15.466,14.710 L15.492,14.676 L15.519,14.642 L15.548,14.609 L15.578,14.577 L15.610,14.545 L15.643,14.514 L15.678,14.483 L15.713,14.454 L15.751,14.425 L15.789,14.397 L15.829,14.370 L15.870,14.344 L15.912,14.319 L15.955,14.295 L16.000,14.273 L16.046,14.251 L16.093,14.231 L16.141,14.212 L16.190,14.195 L16.240,14.178 L16.291,14.163 L16.343,14.150 L16.396,14.138 L16.450,14.128 L16.504,14.119 L16.559,14.111 L16.616,14.106 L16.672,14.102 L16.730,14.099 L16.788,14.099 L16.846,14.100 L16.905,14.103 L16.964,14.107 L17.024,14.114 L17.084,14.122 L17.144,14.132 L17.205,14.144 L17.266,14.158 L17.326,14.174 L17.387,14.192 L17.448,14.212 L17.508,14.234 L17.569,14.257 L17.629,14.283 L17.689,14.311 L17.749,14.340 L17.808,14.372 L17.867,14.406 L17.925,14.441 L17.983,14.479 L18.040,14.518 L18.096,14.559 L18.152,14.603 L18.206,14.648 L18.260,14.695 L18.313,14.744 L18.364,14.795 L18.415,14.848 L18.464,14.903 L18.513,14.959 L18.560,15.017 L18.605,15.077 L18.650,15.139 L18.692,15.202 L18.734,15.268 L18.773,15.334 L18.811,15.402 L18.848,15.472 L18.882,15.543 L18.915,15.616 L18.946,15.690 L18.975,15.766 L19.002,15.843 L19.028,15.921 L19.051,16.000 L19.072,16.080 L19.091,16.162 L19.107,16.245 L19.122,16.328 L19.134,16.413 L19.144,16.498 L19.151,16.584 L19.157,16.671 L19.159,16.759 L19.160,16.847 L19.158,16.935 L19.153,17.025 L19.146,17.114 L19.136,17.204 L19.124,17.294 L19.109,17.384 L19.092,17.475 L19.072,17.565 L19.049,17.656 L19.024,17.746 L18.996,17.836 L18.966,17.926 L18.932,18.015 L18.896,18.104 L18.858,18.193 L18.817,18.281 L18.773,18.368 L18.726,18.455 L18.677,18.540 L18.625,18.625 L18.571,18.709 L18.514,18.792 L18.454,18.873 L18.392,18.954 L18.327,19.033 L18.260,19.110 L18.190,19.187 L18.118,19.262 L18.043,19.335 L17.967,19.406 L17.887,19.476 L17.806,19.544 L17.722,19.610 L17.636,19.674 L17.547,19.736 L17.457,19.795 L17.364,19.853 L17.270,19.908 L17.173,19.961 L17.075,20.012 L16.975,20.060 L16.873,20.106 L16.769,20.149 L16.664,20.190 L16.557,20.227 L16.448,20.262 L16.338,20.295 L16.227,20.324 L16.114,20.351 L16.000,20.374 L15.885,20.395 L15.769,20.412 L15.652,20.427 L15.534,20.438 L15.415,20.446 L15.295,20.451 L15.175,20.453 L15.054,20.451 L14.933,20.446 L14.811,20.438 L14.689,20.427 L14.567,20.412 L14.444,20.394 L14.322,20.372 L14.199,20.347 L14.077,20.318 L13.955,20.287 L13.834,20.251 L13.713,20.212 L13.592,20.170 L13.472,20.125 L13.353,20.076 L13.235,20.023 L13.118,19.967 L13.001,19.908 L12.886,19.845 L12.772,19.779 L12.660,19.710 L12.549,19.637 L12.439,19.561 L12.331,19.482 L12.225,19.399 L12.120,19.314 L12.018,19.225 L11.917,19.133 L11.819,19.038 L11.722,18.940 L11.629,18.839 L11.537,18.735 L11.448,18.628 L11.361,18.519 L11.277,18.406 L11.196,18.291 L11.117,18.174 L11.042,18.054 L10.969,17.931 L10.899,17.806 L10.833,17.679 L10.770,17.549 L10.710,17.418 L10.653,17.284 L10.599,17.148 L10.550,17.010 L10.503,16.871 L10.460,16.729 L10.421,16.586 L10.386,16.442 L10.354,16.296 L10.326,16.149 L10.302,16.000 L10.282,15.850 L10.266,15.699 L10.254,15.548 L10.246,15.395 L10.242,15.242 L10.242,15.088 L10.246,14.934 L10.254,14.779 L10.267,14.624 L10.283,14.468 L10.304,14.313 L10.329,14.158 L10.359,14.002 L10.392,13.847 L10.430,13.693 L10.472,13.539 L10.519,13.386 L10.570,13.233 L10.624,13.081 L10.684,12.931 L10.747,12.781 L10.815,12.632 L10.886,12.485 L10.962,12.340 L11.042,12.196 L11.126,12.053 L11.215,11.913 L11.307,11.774 L11.403,11.638 L11.503,11.503 L11.607,11.371 L11.715,11.241 L11.827,11.114" fill="none" stroke="#C01F2E" stroke-linecap="round" stroke-linejoin="round" stroke-width="1.40"></path>
<path d="M11.715,11.241 L11.827,11.114 L11.942,10.989 L12.061,10.867 L12.184,10.748 L12.310,10.632 L12.440,10.519 L12.573,10.408 L12.710,10.302 L12.850,10.198 L12.993,10.098 L13.139,10.001 L13.288,9.908 L13.440,9.819 L13.594,9.733 L13.752,9.652 L13.912,9.574 L14.075,9.501 L14.240,9.431 L14.407,9.366 L14.577,9.305 L14.749,9.248 L14.922,9.196 L15.098,9.148 L15.275,9.105 L15.454,9.066 L15.635,9.032 L15.817,9.003 L16.000,8.979 L16.184,8.959 L16.370,8.944 L16.556,8.934 L16.743,8.929 L16.931,8.929 L17.119,8.934 L17.308,8.945 L17.496,8.960 L17.685,8.980 L17.874,9.005 L18.063,9.035 L18.251,9.071 L18.439,9.111 L18.627,9.157 L18.814,9.208 L18.999,9.263 L19.184,9.324 L19.368,9.390 L19.550,9.461 L19.731,9.537 L19.911,9.618 L20.088,9.705 L20.264,9.796 L20.438,9.891 L20.610,9.992 L20.780,10.098 L20.947,10.208 L21.111,10.323 L21.273,10.443 L21.433,10.567 L21.589,10.696 L21.742,10.830 L21.893,10.967 L22.039,11.109 L22.183,11.256 L22.323,11.406 L22.459,11.561 L22.591,11.719 L22.720,11.882 L22.845,12.048 L22.965,12.218 L23.081,12.392 L23.193,12.569 L23.301,12.749 L23.404,12.933 L23.502,13.120 L23.596,13.310 L23.685,13.503 L23.768,13.699 L23.847,13.897 L23.921,14.098 L23.990,14.302 L24.053,14.507 L24.111,14.715 L24.164,14.925 L24.211,15.137 L24.253,15.350 L24.289,15.566 L24.320,15.782 L24.345,16.000 L24.364,16.219 L24.377,16.439 L24.385,16.660 L24.387,16.881 L24.383,17.104 L24.373,17.326 L24.357,17.549 L24.335,17.772 L24.307,17.994 L24.273,18.217 L24.234,18.439 L24.188,18.660 L24.136,18.881 L24.079,19.101 L24.015,19.320 L23.946,19.538 L23.870,19.754 L23.789,19.969 L23.702,20.182 L23.609,20.393 L23.510,20.602 L23.405,20.809 L23.295,21.014 L23.179,21.216 L23.058,21.416 L22.931,21.612 L22.798,21.806 L22.660,21.997 L22.517,22.184 L22.369,22.369 L22.215,22.549 L22.056,22.726 L21.892,22.899 L21.724,23.068 L21.550,23.233 L21.372,23.393 L21.189,23.550 L21.001,23.701 L20.810,23.849 L20.614,23.991 L20.413,24.128 L20.209,24.261 L20.001,24.388 L19.789,24.510 L19.573,24.627 L19.354,24.738 L19.132,24.843 L18.906,24.943 L18.677,25.037 L18.445,25.126 L18.211,25.208 L17.973,25.284 L17.734,25.355 L17.492,25.419 L17.248,25.476 L17.001,25.528 L16.753,25.572 L16.504,25.611 L16.253,25.643 L16.000,25.668 L15.746,25.687 L15.492,25.699 L15.236,25.704 L14.980,25.703 L14.724,25.695 L14.467,25.680 L14.210,25.658 L13.953,25.630 L13.697,25.594 L13.441,25.552 L13.185,25.503 L12.931,25.447 L12.677,25.384 L12.425,25.314 L12.173,25.238 L11.924,25.155 L11.676,25.065 L11.430,24.968 L11.187,24.865 L10.945,24.755 L10.706,24.639 L10.470,24.515 L10.236,24.386 L10.006,24.250 L9.779,24.108 L9.555,23.959 L9.334,23.805 L9.117,23.644 L8.904,23.477 L8.696,23.304 L8.491,23.126 L8.291,22.942 L8.095,22.752 L7.903,22.556 L7.717,22.356 L7.536,22.150 L7.360,21.938 L7.189,21.722 L7.023,21.501 L6.863,21.275 L6.709,21.045 L6.560,20.810 L6.417,20.571 L6.281,20.327 L6.151,20.080 L6.027,19.828 L5.909,19.573 L5.798,19.315 L5.694,19.053 L5.596,18.788 L5.505,18.520 L5.421,18.249 L5.344,17.975 L5.274,17.699 L5.212,17.420 L5.156,17.140 L5.108,16.857" fill="none" stroke="#1B4E9B" stroke-linecap="round" stroke-linejoin="round" stroke-width="1.40"></path>
<path d="M5.156,17.140 L5.108,16.857 L5.067,16.573 L5.034,16.287 L5.008,16.000 L4.990,15.712 L4.979,15.422 L4.976,15.132 L4.981,14.842 L4.993,14.551 L5.013,14.260 L5.040,13.969 L5.076,13.678 L5.119,13.388 L5.170,13.098 L5.228,12.809 L5.294,12.522 L5.368,12.235 L5.450,11.950 L5.539,11.667 L5.636,11.386 L5.741,11.106 L5.852,10.830 L5.972,10.555 L6.099,10.284 L6.233,10.015 L6.375,9.749 L6.523,9.487 L6.679,9.228 L6.842,8.973 L7.012,8.722 L7.189,8.475 L7.373,8.232 L7.563,7.993 L7.760,7.760 L7.963,7.531 L8.173,7.307 L8.389,7.088 L8.611,6.875 L8.839,6.667 L9.072,6.465 L9.312,6.269 L9.557,6.079 L9.807,5.894 L10.063,5.717 L10.324,5.545 L10.589,5.381 L10.860,5.223 L11.134,5.072 L11.414,4.928 L11.697,4.791 L11.985,4.661 L12.276,4.539 L12.571,4.424 L12.870,4.317 L13.171,4.218 L13.476,4.126 L13.784,4.043 L14.094,3.967 L14.407,3.899 L14.722,3.840 L15.039,3.789 L15.358,3.746 L15.678,3.711 L16.000,3.685 L16.323,3.667 L16.647,3.658 L16.971,3.657 L17.297,3.664 L17.622,3.681 L17.947,3.706 L18.272,3.739 L18.597,3.781 L18.921,3.832 L19.245,3.891 L19.567,3.959 L19.887,4.036 L20.207,4.121 L20.524,4.214 L20.839,4.316 L21.153,4.427 L21.463,4.546 L21.771,4.673 L22.076,4.809 L22.378,4.953 L22.677,5.105 L22.972,5.265 L23.263,5.433 L23.550,5.608 L23.833,5.792 L24.111,5.983 L24.385,6.182 L24.654,6.389 L24.918,6.603 L25.176,6.824 L25.429,7.052 L25.677,7.287 L25.918,7.529 L26.154,7.778 L26.383,8.033 L26.606,8.294 L26.822,8.562 L27.031,8.836 L27.234,9.116 L27.430,9.401 L27.618,9.692 L27.799,9.988 L27.972,10.290 L28.137,10.596 L28.295,10.907 L28.445,11.223 L28.586,11.543 L28.720,11.867 L28.845,12.195 L28.961,12.527 L29.069,12.862 L29.168,13.201 L29.259,13.543 L29.340,13.887 L29.413,14.234 L29.476,14.584 L29.531,14.935 L29.576,15.289 L29.612,15.644 L29.639,16.000 L29.656,16.358 L29.664,16.716 L29.663,17.075 L29.652,17.435 L29.631,17.795 L29.602,18.154 L29.562,18.514 L29.513,18.872 L29.455,19.230 L29.387,19.587 L29.310,19.943 L29.223,20.296 L29.127,20.648 L29.021,20.998 L28.906,21.346 L28.782,21.691 L28.649,22.033 L28.506,22.372 L28.354,22.708 L28.194,23.040" fill="none" stroke="#CC9B1A" stroke-linecap="round" stroke-linejoin="round" stroke-width="1.40"></path>
</svg>